<!-- Generated by IcoMoon.io -->
<svg version="1.1" xmlns="http://www.w3.org/2000/svg" width="23" height="32" viewBox="0 0 23 32">
<title>reload</title>
<path fill="#777" d="M22.061 3.418q0.364 1.818 0.412 4.097t-0.024 3.212-0.145 1.491q-0.073 0.606-0.679 0.679l-0.194 0.024q-0.194 0.024-0.533 0.049t-0.764 0.049-1.018 0.049-1.176 0.024q-2.812 0-5.188-0.461-0.412-0.073-0.582-0.533-0.121-0.436 0.194-0.776l1.915-1.842q-1.139-0.873-2.788-1.261-1.212-0.218-2.339-0.255t-2.473 0.376-2.679 1.309l-0.436 0.291t-0.412 0.267-0.327 0.206-0.315 0.17-0.267 0.085-0.291 0.036-0.255-0.061q-0.873-0.291-0.121-2.012 1.188-2.788 3.891-4.594t5.952-1.806q4.17 0 7.273 2.836l2.036-2.036q0.388-0.339 0.776-0.194 0.436 0.097 0.558 0.582zM11.855 23.951q-4.194 0-7.297-2.836l-2.036 2.036q-0.242 0.242-0.533 0.242-0.097 0-0.242-0.049-0.412-0.121-0.533-0.582-0.364-1.818-0.412-4.085t0.024-3.212 0.145-1.503q0.049-0.582 0.655-0.679l0.194-0.024q0.194-0.024 0.533-0.049t0.776-0.049 1.018-0.049 1.164-0.024q2.812 0 5.188 0.461 0.461 0.073 0.606 0.533 0.121 0.436-0.194 0.776l-1.915 1.842q1.164 0.873 2.788 1.261 1.188 0.218 2.327 0.255t2.485-0.376 2.679-1.309q0.121-0.073 0.339-0.218l0.327-0.218t0.291-0.182 0.267-0.158 0.23-0.121 0.23-0.097 0.194-0.036 0.206 0 0.194 0.036q0.897 0.291 0.145 2.012-1.212 2.812-3.915 4.606t-5.927 1.794z"></path>
</svg>
