<!-- Generated by IcoMoon.io -->
<svg version="1.1" xmlns="http://www.w3.org/2000/svg" width="46" height="46" viewBox="0 2 23 23">
<title>playvideo2</title>
<path fill="#000" fill-opacity="0.7" d="M21.988 7.394q0.509 3.006 0.509 6.085 0 3.055-0.509 6.061-0.218 1.285-1.151 2.182t-2.218 1.042q-3.564 0.412-6.982 0.412t-6.982-0.412q-1.285-0.145-2.218-1.042t-1.151-2.182q-0.509-3.030-0.509-6.061 0-3.055 0.509-6.085 0.218-1.285 1.164-2.182t2.206-1.042q3.564-0.412 6.982-0.412 3.394 0 6.982 0.412 1.261 0.145 2.206 1.042t1.164 2.182z"></path>
<path fill="#fff" d="M16.17 14.061q0.291-0.218 0.291-0.606t-0.291-0.606q-0.218-0.218-1.018-0.836t-2.63-1.745-3.649-1.879q-0.339-0.145-0.727 0.049-0.315 0.218-0.364 0.63-0.024 0.049-0.061 0.642t-0.085 1.673-0.048 2.073 0.048 2.073 0.085 1.661 0.061 0.655q0.048 0.436 0.364 0.606 0.194 0.121 0.436 0.121 0.097 0 0.291-0.049 1.818-0.752 3.649-1.879t2.63-1.745 1.018-0.836z"></path>
</svg>
